<svg xmlns="http://www.w3.org/2000/svg" viewBox="0 0 1600 900" role="img" aria-labelledby="title desc">
  <title id="title">ATM Failure Prediction System</title>
  <desc id="desc">Abstract illustration of ATM predictive maintenance analytics.</desc>
  <defs>
    <linearGradient id="bg" x1="0%" y1="0%" x2="100%" y2="100%">
      <stop offset="0%" stop-color="#07111f" />
      <stop offset="55%" stop-color="#0e1c35" />
      <stop offset="100%" stop-color="#071827" />
    </linearGradient>
    <linearGradient id="panel" x1="0%" y1="0%" x2="100%" y2="100%">
      <stop offset="0%" stop-color="#13253f" />
      <stop offset="100%" stop-color="#0a1323" />
    </linearGradient>
  </defs>
  <rect width="1600" height="900" fill="url(#bg)" />
  <g opacity="0.25" stroke="#34d399" stroke-width="2">
    <path d="M120 760C270 620 410 650 560 520S870 360 1040 460s290 40 440-120" fill="none" />
    <path d="M120 680C270 540 410 570 560 440S870 280 1040 380s290 40 440-120" fill="none" />
  </g>
  <g>
    <rect x="150" y="150" width="430" height="600" rx="36" fill="url(#panel)" stroke="#22c55e" stroke-opacity="0.45" />
    <rect x="215" y="210" width="300" height="180" rx="20" fill="#0f2f33" stroke="#6ee7b7" stroke-opacity="0.4" />
    <rect x="240" y="438" width="250" height="32" rx="8" fill="#1f3554" />
    <rect x="240" y="490" width="250" height="32" rx="8" fill="#1f3554" />
    <rect x="240" y="542" width="250" height="32" rx="8" fill="#1f3554" />
    <rect x="215" y="620" width="300" height="70" rx="18" fill="#0a1323" stroke="#22c55e" stroke-opacity="0.4" />
    <rect x="315" y="650" width="100" height="10" rx="4" fill="#6ee7b7" />
  </g>
  <g>
    <rect x="720" y="165" width="700" height="540" rx="28" fill="#08111d" stroke="#22c55e" stroke-opacity="0.35" />
    <text x="780" y="245" fill="#d1fae5" font-family="Arial, Helvetica, sans-serif" font-size="56" font-weight="700">ATM Failure Prediction</text>
    <text x="780" y="305" fill="#86efac" font-family="Arial, Helvetica, sans-serif" font-size="30">24-hour proactive maintenance watchlist</text>
    <g fill="#9ca3af" font-family="Courier New, monospace" font-size="26">
      <text x="780" y="395">PR-AUC: 0.85</text>
      <text x="780" y="445">Recall: 81%</text>
      <text x="780" y="495">130+ ATM network</text>
    </g>
    <g transform="translate(1100 370)">
      <circle cx="0" cy="0" r="120" fill="#0f2f33" stroke="#6ee7b7" stroke-opacity="0.45" />
      <path d="M-90 40L-25-30 20 10 90-70" fill="none" stroke="#34d399" stroke-width="16" stroke-linecap="round" stroke-linejoin="round" />
      <circle cx="-90" cy="40" r="12" fill="#a7f3d0" />
      <circle cx="-25" cy="-30" r="12" fill="#a7f3d0" />
      <circle cx="20" cy="10" r="12" fill="#a7f3d0" />
      <circle cx="90" cy="-70" r="12" fill="#a7f3d0" />
    </g>
  </g>
</svg>
