<svg xmlns="http://www.w3.org/2000/svg" viewBox="0 0 1600 900" role="img" aria-labelledby="title desc">
  <title id="title">Intelligent Gmail Cleanup System</title>
  <desc id="desc">Abstract inbox automation illustration for a Gmail cleanup project.</desc>
  <defs>
    <linearGradient id="bg" x1="0%" y1="0%" x2="100%" y2="100%">
      <stop offset="0%" stop-color="#150b18" />
      <stop offset="50%" stop-color="#27112a" />
      <stop offset="100%" stop-color="#120812" />
    </linearGradient>
  </defs>
  <rect width="1600" height="900" fill="url(#bg)" />
  <g opacity="0.16">
    <circle cx="1350" cy="180" r="170" fill="#ec4899" />
    <circle cx="1210" cy="720" r="220" fill="#7e22ce" />
  </g>
  <rect x="150" y="130" width="1300" height="640" rx="34" fill="#140b16" stroke="#f472b6" stroke-opacity="0.35" />
  <g>
    <rect x="220" y="210" width="410" height="470" rx="26" fill="#221327" />
    <path d="M260 278h330v230H260z" fill="#fff1f7" fill-opacity="0.08" />
    <path d="M260 278l165 132 165-132" fill="none" stroke="#f9a8d4" stroke-width="18" stroke-linecap="round" stroke-linejoin="round" />
    <rect x="288" y="550" width="274" height="18" rx="8" fill="#7a284f" />
    <rect x="288" y="590" width="220" height="18" rx="8" fill="#7a284f" />
  </g>
  <g>
    <text x="730" y="255" fill="#fdf2f8" font-family="Arial, Helvetica, sans-serif" font-size="56" font-weight="700">Gmail Cleanup Automation</text>
    <text x="730" y="315" fill="#f9a8d4" font-family="Arial, Helvetica, sans-serif" font-size="30">Inbox triage, filtering, labels, and archiving</text>
    <g fill="#fbcfe8" font-family="Courier New, monospace" font-size="24">
      <text x="730" y="420">Rules: sender, keywords, subject patterns</text>
      <text x="730" y="468">Actions: archive, label, keep, ignore</text>
      <text x="730" y="516">Goal: reduce inbox clutter automatically</text>
    </g>
    <g transform="translate(1110 610)">
      <rect x="-190" y="-92" width="400" height="170" rx="24" fill="#221327" />
      <rect x="-158" y="-40" width="110" height="26" rx="13" fill="#ec4899" />
      <rect x="-28" y="-40" width="130" height="26" rx="13" fill="#9333ea" />
      <rect x="120" y="-40" width="58" height="26" rx="13" fill="#f472b6" />
      <path d="M-144 26h306" stroke="#fbcfe8" stroke-opacity="0.35" stroke-width="8" stroke-linecap="round" />
      <path d="M-144 56h248" stroke="#fbcfe8" stroke-opacity="0.35" stroke-width="8" stroke-linecap="round" />
    </g>
  </g>
</svg>
